<svg width="24" height="25" viewBox="0 0 24 25" fill="none" xmlns="http://www.w3.org/2000/svg">
<g opacity="0.6">
<path d="M7.90355 10.6786C7.29489 10.6786 6.80315 11.2212 6.80315 11.8929C6.80315 12.5645 7.29489 13.1071 7.90355 13.1071C8.5122 13.1071 9.00394 12.5645 9.00394 11.8929C9.00394 11.2212 8.5122 10.6786 7.90355 10.6786ZM11.7549 10.6786C11.1463 10.6786 10.6545 11.2212 10.6545 11.8929C10.6545 12.5645 11.1463 13.1071 11.7549 13.1071C12.3636 13.1071 12.8553 12.5645 12.8553 11.8929C12.8553 11.2212 12.3636 10.6786 11.7549 10.6786ZM15.6063 10.6786C14.9977 10.6786 14.5059 11.2212 14.5059 11.8929C14.5059 12.5645 14.9977 13.1071 15.6063 13.1071C16.215 13.1071 16.7067 12.5645 16.7067 11.8929C16.7067 11.2212 16.215 10.6786 15.6063 10.6786ZM11.7549 4C6.89256 4 2.95178 7.53281 2.95178 11.8929C2.95178 13.6991 3.63608 15.3536 4.77086 16.6855C4.25849 18.1806 3.19249 19.448 3.17529 19.4632C2.94834 19.7288 2.88644 20.1158 3.01711 20.4498C3.14778 20.7837 3.44695 21 3.77707 21C5.89189 21 7.55968 20.0248 8.56035 19.2431C9.55414 19.5884 10.627 19.7857 11.7549 19.7857C16.6173 19.7857 20.5581 16.2529 20.5581 11.8929C20.5581 7.53281 16.6173 4 11.7549 4ZM11.7549 17.9643C10.8368 17.9643 9.92896 17.8087 9.05896 17.5051L8.27837 17.2319L7.60782 17.7556C7.11608 18.1388 6.44209 18.5676 5.63055 18.856C5.88157 18.3969 6.12572 17.8808 6.31485 17.3306L6.67936 16.2643L5.97098 15.4371C5.34857 14.7047 4.60237 13.4942 4.60237 11.8929C4.60237 8.54598 7.8107 5.82143 11.7549 5.82143C15.6992 5.82143 18.9075 8.54598 18.9075 11.8929C18.9075 15.2397 15.6992 17.9643 11.7549 17.9643Z" fill="#363636"/>
</g>
</svg>
