<svg width="24" height="25" viewBox="0 0 24 25" fill="none" xmlns="http://www.w3.org/2000/svg">
<g opacity="0.6">
<path d="M18.9794 4.15624C16.4308 2.28124 13.2837 3.15624 11.5846 5.30208C9.88552 3.15624 6.73837 2.27083 4.18976 4.15624C2.83823 5.15624 1.98869 6.84374 1.93077 8.62499C1.79561 12.6667 5.11653 15.9062 10.1848 20.875L10.2813 20.9687C11.015 21.6875 12.1445 21.6875 12.8782 20.9583L12.9844 20.8542C18.0527 15.8958 21.3639 12.6562 21.2384 8.61458C21.1805 6.84375 20.331 5.15624 18.9794 4.15624ZM11.6811 19.3229L11.5846 19.4271L11.4881 19.3229C6.89283 14.8333 3.86153 11.8646 3.86153 8.85416C3.86153 6.77083 5.30961 5.20833 7.24037 5.20833C8.72706 5.20833 10.1751 6.23958 10.6868 7.66666H12.4921C12.9941 6.23958 14.4421 5.20833 15.9288 5.20833C17.8596 5.20833 19.3077 6.77083 19.3077 8.85416C19.3077 11.8646 16.2764 14.8333 11.6811 19.3229Z" fill="#363636"/>
</g>
</svg>
