<svg width="27" height="26" viewBox="0 0 27 26" fill="none" xmlns="http://www.w3.org/2000/svg">
<path d="M21.4808 4.32251C18.6208 2.37251 15.0891 3.28251 13.1824 5.51417C11.2758 3.28251 7.7441 2.36167 4.8841 4.32251C3.36743 5.36251 2.4141 7.11751 2.3491 8.97001C2.19743 13.1733 5.9241 16.5425 11.6116 21.71L11.7199 21.8075C12.5433 22.555 13.8108 22.555 14.6341 21.7967L14.7533 21.6883C20.4408 16.5317 24.1566 13.1625 24.0158 8.95917C23.9508 7.11751 22.9974 5.36251 21.4808 4.32251ZM13.2908 20.0958L13.1824 20.2042L13.0741 20.0958C7.91743 15.4267 4.51577 12.3392 4.51577 9.20834C4.51577 7.04167 6.14077 5.41667 8.30743 5.41667C9.97577 5.41667 11.6008 6.48917 12.1749 7.97334H14.2008C14.7641 6.48917 16.3891 5.41667 18.0574 5.41667C20.2241 5.41667 21.8491 7.04167 21.8491 9.20834C21.8491 12.3392 18.4474 15.4267 13.2908 20.0958Z" fill="white"/>
</svg>
