<svg width="24" height="25" viewBox="0 0 24 25" fill="none" xmlns="http://www.w3.org/2000/svg">
<g opacity="0.6">
<path d="M17.6543 3H7.11841C5.42389 3 4.04545 4.4915 4.04545 6.325V22L10.1914 18.675L16.3373 22V13.45H20.7273V6.325C20.7273 4.4915 19.3488 3 17.6543 3ZM14.5813 18.9258L10.1914 16.5508L5.80143 18.9258V6.325C5.80143 5.53935 6.39232 4.9 7.11841 4.9H14.8904C14.6894 5.34373 14.5838 5.83087 14.5813 6.325V18.9258ZM18.9713 11.55H16.3373V6.325C16.3373 5.53935 16.9282 4.9 17.6543 4.9C18.3804 4.9 18.9713 5.53935 18.9713 6.325V11.55Z" fill="#363636"/>
</g>
</svg>
